<?xml version="1.0" encoding="UTF-8" standalone="no" ?>
<!DOCTYPE svg PUBLIC "-//W3C//DTD SVG 1.1//EN" "http://www.w3.org/Graphics/SVG/1.1/DTD/svg11.dtd">
<svg xmlns="http://www.w3.org/2000/svg" xmlns:xlink="http://www.w3.org/1999/xlink" version="1.1" width="512" height="512" viewBox="0 0 512 512" xml:space="preserve">
<desc>Created with Fabric.js 3.6.3</desc>
<defs>
</defs>
<g transform="matrix(6.15 0 0 6.86 256.01 256.95)"  >
<g style=""   >
		<g transform="matrix(1 0 0 1 -1.55 -14.03)"  >
<linearGradient id="SVGID_9" gradientUnits="userSpaceOnUse" gradientTransform="matrix(1 0 0 1 0 0)"  x1="93.0619" y1="86.6981" x2="114.2983" y2="86.6981">
<stop offset="0%" style="stop-color:rgb(91,154,211);stop-opacity: 1"/>
<stop offset="100%" style="stop-color:rgb(22,81,155);stop-opacity: 1"/>
</linearGradient>
<path style="stroke: none; stroke-width: 1; stroke-dasharray: none; stroke-linecap: butt; stroke-dashoffset: 0; stroke-linejoin: miter; stroke-miterlimit: 4; fill: url(#SVGID_9); fill-rule: nonzero; opacity: 1;"  transform=" translate(-103.67, -86.7)" d="M 111.89 83.7 c -1.72 -2.28 -4.37 -3.42 -7.95 -3.42 c -1.81 0 -3.39 0.34 -4.73 1.02 c -1.34 0.68 -2.45 1.59 -3.34 2.74 c -0.89 1.15 -1.57 2.51 -2.04 4.08 c -0.41 1.38 -0.67 2.84 -0.78 4.37 c 0.02 0.2 0.12 0.64 0.73 0.64 h 19.66 c 0.33 -0.03 0.85 -0.21 0.85 -1.07 C 114.25 88.56 113.45 85.77 111.89 83.7 z" stroke-linecap="round" />
</g>
		<g transform="matrix(1 0 0 1 14.49 -9.67)"  >
<linearGradient id="SVGID_10" gradientUnits="userSpaceOnUse" gradientTransform="matrix(1 0 0 1 0 0)"  x1="93.0799" y1="91.064" x2="146.3307" y2="91.064">
<stop offset="0%" style="stop-color:rgb(91,154,211);stop-opacity: 1"/>
<stop offset="100%" style="stop-color:rgb(22,81,155);stop-opacity: 1"/>
</linearGradient>
<path style="stroke: none; stroke-width: 1; stroke-dasharray: none; stroke-linecap: butt; stroke-dashoffset: 0; stroke-linejoin: miter; stroke-miterlimit: 4; fill: url(#SVGID_10); fill-rule: nonzero; opacity: 1;"  transform=" translate(-119.71, -91.07)" d="M 139.28 70.94 c -8.73 -8.73 -22.57 -9.32 -32.07 -1.83 c -0.18 0.25 -0.8 1.2 0.05 1.24 c 0.05 0 0.09 0.02 0.12 0.03 c 2.91 0.23 5.51 0.77 7.74 1.7 c 3 1.25 5.46 2.97 7.39 5.18 c 1.92 2.21 3.34 4.82 4.24 7.84 c 0.91 3.02 1.36 6.3 1.36 9.85 v 2.26 c 0 1.74 -0.39 3.02 -1.16 3.85 c -0.77 0.83 -1.84 1.25 -3.2 1.25 H 94.12 c -0.89 0.07 -1.04 1.07 -1.04 1.74 c 0.1 1.47 0.33 2.85 0.7 4.12 c 0.51 1.75 1.32 3.25 2.43 4.47 c 1.11 1.23 2.55 2.16 4.3 2.8 c 1.75 0.64 3.86 0.96 6.31 0.96 c 2.49 0 4.68 -0.18 6.56 -0.54 c 1.89 -0.36 3.52 -0.75 4.9 -1.19 c 1.38 -0.43 2.52 -0.83 3.42 -1.19 c 0.91 -0.36 1.64 -0.54 2.21 -0.54 c 0.34 0 0.62 0.07 0.85 0.2 c 0.23 0.13 0.41 0.37 0.57 0.71 c 0.15 0.34 0.25 0.82 0.31 1.44 s 0.09 1.41 0.09 2.35 c 0 0.07 0 0.13 0 0.19 l 0 0 c 0 0 0.1 0.76 0.68 0.18 l 12.66 -12.66 c 0.07 -0.07 0.14 -0.14 0.2 -0.2 c 0.07 -0.07 0.1 -0.1 0.17 -0.17 C 148.68 95.52 148.63 80.29 139.28 70.94 z" stroke-linecap="round" />
</g>
		<g transform="matrix(1 0 0 1 -21.35 -11.55)"  >
<linearGradient id="SVGID_11" gradientUnits="userSpaceOnUse" gradientTransform="matrix(1 0 0 1 0 0)"  x1="64.1008" y1="89.1975" x2="103.6403" y2="89.1975">
<stop offset="0%" style="stop-color:rgb(91,154,211);stop-opacity: 1"/>
<stop offset="100%" style="stop-color:rgb(22,81,155);stop-opacity: 1"/>
</linearGradient>
<path style="stroke: none; stroke-width: 1; stroke-dasharray: none; stroke-linecap: butt; stroke-dashoffset: 0; stroke-linejoin: miter; stroke-miterlimit: 4; fill: url(#SVGID_11); fill-rule: nonzero; opacity: 1;"  transform=" translate(-83.87, -89.2)" d="M 103.29 69.14 c -9.5 -7.52 -23.38 -6.93 -32.13 1.81 c -9.35 9.35 -9.42 24.6 -0.18 34.07 c 0.07 0.07 0.1 0.1 0.17 0.17 l 9.17 9.17 h 0 c 0 0 1.1 0.61 0.53 -0.96 c -0.03 -0.09 -0.05 -0.17 -0.06 -0.25 c -0.2 -0.52 -0.42 -1.03 -0.59 -1.58 c -1.11 -3.51 -1.67 -7.62 -1.67 -12.34 c 0 -4.49 0.58 -8.54 1.75 -12.14 c 1.17 -3.6 2.87 -6.66 5.09 -9.17 c 2.23 -2.51 4.93 -4.42 8.12 -5.74 c 2.78 -1.15 5.88 -1.77 9.27 -1.92 c 0.06 -0.02 0.11 -0.03 0.18 -0.04 C 104.08 70.16 103.54 69.42 103.29 69.14 z" stroke-linecap="round" />
</g>
		<g transform="matrix(1 0 0 1 -0.65 30.37)"  >
<linearGradient id="SVGID_12" gradientUnits="userSpaceOnUse" gradientTransform="matrix(1 0 0 1 0 0)"  x1="91.1957" y1="131.1088" x2="117.9432" y2="131.1088">
<stop offset="0%" style="stop-color:rgb(91,154,211);stop-opacity: 1"/>
<stop offset="100%" style="stop-color:rgb(22,81,155);stop-opacity: 1"/>
</linearGradient>
<path style="stroke: none; stroke-width: 1; stroke-dasharray: none; stroke-linecap: butt; stroke-dashoffset: 0; stroke-linejoin: miter; stroke-miterlimit: 4; fill: url(#SVGID_12); fill-rule: nonzero; opacity: 1;"  transform=" translate(-104.57, -131.11)" d="M 117.19 125.81 c -0.37 0.08 -0.76 0.17 -1.16 0.24 c -0.02 0.01 -0.03 0.01 -0.03 0.01 l 0 0 c -1.08 0.22 -2.23 0.42 -3.46 0.6 c -2.19 0.32 -4.53 0.48 -7.02 0.48 c -4.49 0 -8.42 -0.57 -11.8 -1.7 c -0.53 -0.18 -1.03 -0.39 -1.53 -0.6 c -0.06 -0.01 -0.12 -0.02 -0.18 -0.05 c -1.71 -0.65 -0.21 1.05 -0.21 1.05 h 0 l 11.05 11.05 c 0 0 1.24 0.77 2.44 0.67 c 1.21 -0.1 2.71 -1.16 2.71 -1.16 l 0.83 -0.83 l 8.97 -8.97 C 118.18 125.91 117.73 125.77 117.19 125.81 z" stroke-linecap="round" />
</g>
</g>
</g>
</svg>